# xmcd CD database file
#
# Track frame offsets:
#	150
#	21839
#	47342
#	67875
#	88340
#	121328
#	140641
#	160854
#	184943
#	209293
#	224439
#
# Disc length: 3274 seconds
#
# Revision: 0
# Processed by: cddbd v1.4PL0 Copyright (c) Steve Scherf et al.
# Submitted via: CDex 1.51
#
DISCID=9e0cc80b
DTITLE=Zola Moon - Lost In The Blues
DYEAR=1995
DGENRE=Blues
TTITLE0=Blue Wind
TTITLE1=Lost In The Blues
TTITLE2=Ice Cold Kiss
TTITLE3=Imagination
TTITLE4=Baby Get Lost
TTITLE5=Mother Earth
TTITLE6=Party Boy
TTITLE7=Dangerous Love
TTITLE8=Radio Lover
TTITLE9=Mean, Mean Man
TTITLE10=Funeral In New Orleans
EXTD=YEAR: 1995
EXTT0=
EXTT1=
EXTT2=
EXTT3=
EXTT4=
EXTT5=
EXTT6=
EXTT7=
EXTT8=
EXTT9=
EXTT10=
PLAYORDER=
